<svg width="67" height="67" viewBox="0 0 67 67" fill="none" xmlns="http://www.w3.org/2000/svg">
<circle cx="33.5" cy="33.5" r="33.5" fill="#E9DED4"/>
<path d="M50.6446 56.4663H49.7348C49.7348 56.4565 49.7303 56.4467 49.7284 56.4375L49.7035 56.3249C49.6876 56.2509 49.6703 56.1774 49.6525 56.1046C49.6448 56.0703 49.6365 56.036 49.6282 56.0017C49.6046 55.9057 49.5797 55.8095 49.5542 55.7135L49.5466 55.6859C49.5185 55.5819 49.4891 55.4782 49.4585 55.375L49.4279 55.2752C49.4068 55.2042 49.3845 55.1338 49.3641 55.0634C49.352 55.0249 49.3392 54.9869 49.3271 54.949C49.3048 54.881 49.2818 54.8131 49.2582 54.7458C49.2461 54.7103 49.2333 54.6742 49.2212 54.6393C49.1914 54.5548 49.1608 54.4709 49.1293 54.3877C49.1223 54.37 49.1165 54.3528 49.1095 54.3351C49.0725 54.2371 49.0336 54.1398 48.994 54.0425C48.98 54.007 48.9653 53.9721 48.9507 53.9372C48.9239 53.876 48.8971 53.8087 48.8696 53.745L48.818 53.6269C48.7912 53.5657 48.7637 53.5045 48.7356 53.4433C48.7184 53.4053 48.7006 53.3668 48.6827 53.3288C48.6501 53.2584 48.6189 53.1886 48.5825 53.1195C48.5691 53.0932 48.557 53.0662 48.5436 53.0393C48.4983 52.9481 48.4517 52.8557 48.4045 52.7675L48.3407 52.6531L48.2508 52.4872L48.1806 52.3648C48.1512 52.3134 48.1219 52.262 48.0919 52.2105C48.0683 52.1689 48.044 52.1273 48.0198 52.0881C47.9866 52.0324 47.956 51.978 47.9196 51.9229L47.8277 51.7735C47.7844 51.705 47.741 51.6358 47.6963 51.5679C47.6682 51.525 47.6402 51.4828 47.6115 51.4406C47.5827 51.3983 47.5515 51.35 47.5209 51.3053C47.4902 51.2606 47.4571 51.2159 47.429 51.1719C47.4009 51.1278 47.3703 51.088 47.3403 51.0494C47.3103 51.0109 47.2765 50.9595 47.244 50.9148L47.154 50.7924C47.0902 50.711 47.0315 50.6296 46.969 50.5475L46.8816 50.4355C46.8446 50.3884 46.8063 50.3419 46.7686 50.2954L46.6844 50.1925C46.6455 50.1454 46.6059 50.0989 46.5664 50.0518L46.4834 49.955L46.3597 49.813L46.2863 49.731C46.1338 49.5615 45.9775 49.3944 45.8174 49.2316L45.7472 49.16L45.6004 49.0149L45.5283 48.9451C45.4773 48.8955 45.4262 48.8466 45.3746 48.7982L45.3216 48.7493C45.1411 48.5809 44.9554 48.4169 44.7665 48.2596L44.7149 48.2161C44.6566 48.1672 44.5979 48.1188 44.5388 48.0711L44.4801 48.0233C44.4163 47.9744 44.3582 47.926 44.2963 47.8777L44.2651 47.8538C44.0564 47.6922 43.8427 47.5349 43.627 47.3837L43.5971 47.3623C43.5288 47.3152 43.4605 47.2686 43.3916 47.2227L43.3463 47.1927C43.2761 47.1456 43.2053 47.0997 43.1345 47.0538L43.1224 47.0465C42.8876 46.8959 42.6483 46.7516 42.4046 46.6137L42.395 46.6076C42.3178 46.5642 42.2406 46.5219 42.1634 46.4797L42.1296 46.4613C41.7187 46.2389 41.2968 46.0349 40.8638 45.8492L40.837 45.8376C40.7228 45.7886 40.6079 45.7415 40.4918 45.695H42.7753C43.1472 45.695 43.449 45.2843 43.449 44.7769C43.449 44.2695 43.1472 43.8588 42.7753 43.8588H42.0952C42.1373 43.7559 42.1838 43.6396 42.2342 43.5087C42.8774 43.1243 44.0092 42.3053 45.1321 40.8008L45.1411 40.7892C45.2261 40.6766 45.3097 40.5601 45.3918 40.4397L45.4084 40.4158C45.49 40.2977 45.5717 40.1759 45.6521 40.0486L45.6738 40.0149C45.7121 39.9537 45.7504 39.8925 45.7886 39.8313C45.7886 39.8313 45.7886 39.8264 45.7931 39.8234C45.8327 39.7621 45.8716 39.6948 45.9105 39.6293L45.9354 39.5871C45.9686 39.5308 46.0024 39.4732 46.0349 39.4151C46.0413 39.4047 46.0477 39.3943 46.0534 39.3833C46.0911 39.3172 46.1287 39.2498 46.1657 39.1819L46.1912 39.1348C46.2219 39.0785 46.2518 39.0215 46.2818 38.964C46.2908 38.9481 46.2997 38.9316 46.308 38.915C46.3437 38.8459 46.3794 38.7761 46.4152 38.7051L46.4401 38.6555C46.4681 38.598 46.4968 38.5392 46.5249 38.4805L46.5555 38.4192C46.59 38.347 46.6238 38.2736 46.6576 38.1995L46.6787 38.1524C46.7068 38.0912 46.7342 38.03 46.7616 37.9688L46.7942 37.8953C46.8261 37.8212 46.858 37.7466 46.8886 37.6713C46.8943 37.6578 46.9001 37.6437 46.9052 37.6303C46.9339 37.5611 46.962 37.4907 46.99 37.4197L47.0219 37.3389C47.0481 37.2716 47.0742 37.2037 47.0998 37.1357L47.1189 37.0843C47.1489 37.0035 47.1782 36.9209 47.2076 36.8395L47.2382 36.7526C47.2612 36.6877 47.2835 36.6216 47.3058 36.5555C47.3141 36.531 47.3224 36.5065 47.3301 36.482C47.3582 36.3976 47.3862 36.3113 47.4137 36.225C47.4226 36.195 47.4322 36.1637 47.4411 36.1356L47.5049 35.9342C47.5132 35.9048 47.5221 35.873 47.5304 35.8467C47.5566 35.7579 47.5827 35.6674 47.6076 35.5762C47.6159 35.5474 47.6236 35.518 47.6312 35.4886C47.6504 35.4182 47.6695 35.3479 47.688 35.2762C47.6963 35.2438 47.7046 35.2114 47.7135 35.1789C47.7371 35.0847 47.7608 34.9898 47.7837 34.8937L47.8029 34.8135C47.8207 34.737 47.8386 34.6599 47.8558 34.5821L47.8788 34.4781C47.9005 34.3783 47.9222 34.2785 47.9426 34.1769C47.9471 34.1574 47.9509 34.1372 47.9547 34.1157C47.9726 34.0282 47.9898 33.9395 48.0064 33.8507C48.0134 33.8146 48.0198 33.7785 48.0268 33.7424C48.0434 33.6512 48.0593 33.5588 48.0753 33.4676C48.0785 33.448 48.0823 33.429 48.0855 33.41C48.1034 33.3023 48.1208 33.1937 48.1378 33.0844C48.1436 33.0477 48.1493 33.0109 48.1544 32.9736C48.1678 32.8849 48.1806 32.7955 48.1933 32.7049L48.2048 32.6217C48.2201 32.509 48.2348 32.3958 48.2488 32.2807C48.2533 32.2446 48.2571 32.2085 48.2616 32.1718C48.2727 32.0804 48.2829 31.9886 48.2922 31.8964C48.296 31.8633 48.2999 31.8309 48.3031 31.7978C48.3154 31.6795 48.3269 31.5601 48.3375 31.4397C48.3375 31.4061 48.3433 31.3724 48.3458 31.3381C48.3541 31.2414 48.3624 31.1441 48.3694 31.0462C48.3694 31.0101 48.3752 30.974 48.3777 30.9378C48.3867 30.813 48.3949 30.6873 48.4026 30.5608C48.4026 30.532 48.4026 30.4996 48.4071 30.4739C48.4128 30.3686 48.4186 30.2627 48.423 30.1562C48.423 30.1177 48.423 30.0791 48.4281 30.0405C48.4332 29.9089 48.4383 29.7767 48.4422 29.6427C48.4422 29.6243 48.4422 29.6053 48.4422 29.5864C48.4456 29.4672 48.4481 29.3468 48.4498 29.2252C48.4498 29.1855 48.4498 29.1457 48.4498 29.1059C48.4498 28.9753 48.4498 28.8439 48.4498 28.7117V28.6811C48.4498 28.5403 48.4498 28.3977 48.4498 28.2527V28.1303C48.4498 28.0078 48.4447 27.8793 48.4415 27.752V27.6828C48.4371 27.5359 48.4313 27.3872 48.4256 27.2378C48.4256 27.1993 48.4217 27.1601 48.4205 27.1215C48.4149 26.9959 48.4086 26.8694 48.4013 26.7421C48.4013 26.7108 48.4013 26.6808 48.3962 26.6472C48.3873 26.4942 48.3775 26.3399 48.3669 26.1845L48.3592 26.0761C48.3496 25.9464 48.3401 25.816 48.3292 25.6844C48.3292 25.6464 48.3235 25.6085 48.3203 25.5705C48.3069 25.4114 48.2922 25.2504 48.2769 25.0888C48.2769 25.0582 48.2705 25.0276 48.268 24.9964C48.2546 24.8587 48.2399 24.7198 48.2252 24.5796C48.2208 24.5374 48.2163 24.4957 48.2112 24.4535C48.1933 24.287 48.1742 24.1199 48.1538 23.9504C48.1538 23.9296 48.148 23.9088 48.1455 23.8892C48.1272 23.7374 48.1078 23.5848 48.0874 23.4313C48.081 23.386 48.0753 23.3408 48.0689 23.2955C48.0451 23.1216 48.0206 22.9464 47.9955 22.7697C45.4435 5.34143 27.3582 8.16983 27.3582 8.16983L27.9375 11.9145L17 22.9992L17.4779 27.2795L21.6212 29.7278C21.8059 29.2774 22.043 28.8485 22.3281 28.4491C25.0014 25.491 30.1878 23.1688 31.6725 22.6871C31.9698 22.591 32.1389 22.5426 32.1389 22.5426C25.0371 31.3602 25.8448 41.4619 26.1613 43.8698C25.8321 43.931 25.5775 44.3123 25.5775 44.7775C25.5775 45.2843 25.8793 45.6956 26.2513 45.6956H28.5347C24.737 47.2206 21.7225 50.1252 20.1493 53.775C20.1474 53.78 20.1453 53.7849 20.1429 53.7897C20.0268 54.0606 19.9187 54.3355 19.8188 54.6142V54.6227C19.792 54.6986 19.7658 54.7745 19.7403 54.851C19.7307 54.8786 19.7211 54.9061 19.7122 54.9343C19.6892 55.0028 19.668 55.072 19.6484 55.1418C19.6369 55.1773 19.6261 55.2134 19.6152 55.2489C19.5948 55.3144 19.575 55.3805 19.5559 55.4466L19.5214 55.569C19.5036 55.6302 19.4857 55.6957 19.4691 55.7594C19.457 55.8047 19.4455 55.8493 19.434 55.8946C19.4187 55.9558 19.4028 56.0171 19.3881 56.0783C19.3734 56.1395 19.3594 56.2007 19.3454 56.2655C19.3313 56.3304 19.3135 56.4063 19.2981 56.4773H18.3877C18.2126 56.4736 18.0385 56.5035 17.8757 56.5652C17.7128 56.6269 17.5644 56.7193 17.4392 56.8367C17.314 56.9542 17.2146 57.0945 17.1467 57.2494C17.0787 57.4042 17.0438 57.5705 17.0438 57.7385C17.0438 57.9065 17.0787 58.0728 17.1467 58.2277C17.2146 58.3825 17.314 58.5228 17.4392 58.6403C17.5644 58.7578 17.7128 58.8501 17.8757 58.9118C18.0385 58.9735 18.2126 59.0034 18.3877 58.9997H50.6561C50.8312 59.0034 51.0052 58.9735 51.1681 58.9118C51.331 58.8501 51.4794 58.7578 51.6046 58.6403C51.7297 58.5228 51.8292 58.3825 51.8971 58.2277C51.965 58.0728 52 57.9065 52 57.7385C52 57.5705 51.965 57.4042 51.8971 57.2494C51.8292 57.0945 51.7297 56.9542 51.6046 56.8367C51.4794 56.7193 51.331 56.6269 51.1681 56.5652C51.0052 56.5035 50.8312 56.4736 50.6561 56.4773L50.6446 56.4663Z" fill="#595653"/>
</svg>
